<svg width="170" height="59" viewBox="0 0 170 59" fill="none" xmlns="http://www.w3.org/2000/svg">
<g clip-path="url(#clip0_7_109)">
<path d="M73.1468 20.6V37.4H70.1487V24.2167H70.1087L64.7521 37.4H62.7533L57.2768 24.2167H57.2368V37.4H54.4785V20.6H58.7958L63.7527 33.0444H63.8327L69.0694 20.6H73.1468ZM75.6253 21.8833C75.6253 21.4167 75.7852 21.0278 76.145 20.7167C76.5047 20.4056 76.9045 20.25 77.3842 20.25C77.9039 20.25 78.3436 20.4056 78.6634 20.7167C78.9832 21.0278 79.1831 21.4167 79.1831 21.8833C79.1831 22.35 79.0232 22.7389 78.6634 23.05C78.3036 23.3611 77.9039 23.5167 77.3842 23.5167C76.8645 23.5167 76.4648 23.3611 76.145 23.05C75.8252 22.7 75.6253 22.3111 75.6253 21.8833ZM78.8633 25.3444V37.4H75.9451V25.3444H78.8633ZM87.6977 35.3389C88.1375 35.3389 88.6172 35.2611 89.1368 35.0278C89.6565 34.8333 90.1362 34.5611 90.5759 34.25V36.8944C90.0962 37.1667 89.5766 37.3611 88.9769 37.4778C88.3773 37.5944 87.7377 37.6722 87.0182 37.6722C85.1793 37.6722 83.7002 37.1278 82.5809 36C81.4217 34.8722 80.862 33.4333 80.862 31.7222C80.862 29.7778 81.4616 28.1833 82.6209 26.9389C83.7802 25.6944 85.4192 25.0722 87.5778 25.0722C88.1375 25.0722 88.6971 25.15 89.2168 25.2667C89.7764 25.3833 90.2162 25.5778 90.536 25.7333V28.4556C90.0962 28.1444 89.6165 27.8722 89.1768 27.7167C88.6971 27.5611 88.2174 27.4444 87.7377 27.4444C86.5784 27.4444 85.659 27.7944 84.9395 28.5333C84.2199 29.2722 83.9001 30.2444 83.9001 31.4889C83.9001 32.6944 84.2599 33.6667 84.9395 34.3278C85.619 34.9889 86.5385 35.3389 87.6977 35.3389ZM98.8508 25.15C99.0906 25.15 99.2905 25.15 99.4904 25.1889C99.6902 25.2278 99.8501 25.2667 99.9701 25.3056V28.1833C99.8102 28.0667 99.6103 27.95 99.2905 27.8722C98.9707 27.7944 98.6509 27.7167 98.2112 27.7167C97.4916 27.7167 96.892 28.0278 96.4123 28.6111C95.9326 29.1944 95.6528 30.0889 95.6528 31.3333V37.4H92.7346V25.3444H95.6528V27.25H95.6927C95.9726 26.5889 96.3723 26.0833 96.892 25.6944C97.4516 25.3444 98.0912 25.15 98.8508 25.15ZM100.13 31.5667C100.13 29.5833 100.73 27.9889 101.849 26.8222C103.008 25.6556 104.607 25.0722 106.646 25.0722C108.565 25.0722 110.084 25.6167 111.163 26.7444C112.242 27.8722 112.802 29.3889 112.802 31.2944C112.802 33.2389 112.202 34.7944 111.083 35.9611C109.924 37.1278 108.365 37.7111 106.366 37.7111C104.447 37.7111 102.928 37.1667 101.809 36.0778C100.69 34.95 100.13 33.4333 100.13 31.5667ZM103.168 31.45C103.168 32.6944 103.448 33.6667 104.048 34.3278C104.647 34.9889 105.487 35.3389 106.566 35.3389C107.605 35.3389 108.445 35.0278 109.004 34.3278C109.564 33.6667 109.844 32.6944 109.844 31.3722C109.844 30.0889 109.564 29.1167 109.004 28.4167C108.445 27.7556 107.605 27.4056 106.606 27.4056C105.527 27.4056 104.727 27.7556 104.127 28.4556C103.448 29.1944 103.168 30.1667 103.168 31.45ZM117.159 28.5333C117.159 28.9222 117.279 29.2722 117.559 29.5056C117.839 29.7389 118.399 30.0111 119.318 30.3611C120.477 30.8278 121.317 31.3333 121.756 31.8778C122.236 32.4611 122.476 33.1222 122.476 33.9389C122.476 35.0667 122.036 35.9611 121.117 36.6611C120.237 37.3611 118.998 37.6722 117.479 37.6722C116.959 37.6722 116.4 37.5944 115.76 37.4778C115.121 37.3611 114.601 37.2056 114.161 37.0111V34.2111C114.681 34.5611 115.28 34.8722 115.88 35.0667C116.48 35.2611 117.039 35.3778 117.559 35.3778C118.199 35.3778 118.718 35.3 118.998 35.1056C119.318 34.9111 119.478 34.6389 119.478 34.2111C119.478 33.8222 119.318 33.5111 118.998 33.2C118.678 32.9278 118.039 32.6167 117.159 32.2667C116.08 31.8389 115.32 31.3333 114.881 30.7889C114.441 30.2444 114.201 29.5444 114.201 28.6889C114.201 27.6 114.641 26.7056 115.52 26.0056C116.4 25.3056 117.559 24.9556 118.958 24.9556C119.398 24.9556 119.878 24.9944 120.397 25.1111C120.917 25.2278 121.397 25.3444 121.756 25.4611V28.2222C121.357 27.9889 120.917 27.7556 120.397 27.5611C119.878 27.3667 119.358 27.2889 118.878 27.2889C118.319 27.2889 117.879 27.4056 117.599 27.6C117.319 27.8722 117.159 28.1444 117.159 28.5333ZM123.715 31.5667C123.715 29.5833 124.315 27.9889 125.434 26.8222C126.593 25.6556 128.192 25.0722 130.231 25.0722C132.15 25.0722 133.669 25.6167 134.748 26.7444C135.828 27.8722 136.387 29.3889 136.387 31.2944C136.387 33.2389 135.788 34.7944 134.668 35.9611C133.509 37.1278 131.95 37.7111 129.951 37.7111C128.033 37.7111 126.513 37.1667 125.394 36.0778C124.315 34.95 123.715 33.4333 123.715 31.5667ZM126.753 31.45C126.753 32.6944 127.033 33.6667 127.633 34.3278C128.232 34.9889 129.072 35.3389 130.151 35.3389C131.191 35.3389 132.03 35.0278 132.59 34.3278C133.149 33.6667 133.429 32.6944 133.429 31.3722C133.429 30.0889 133.149 29.1167 132.59 28.4167C132.03 27.7556 131.191 27.4056 130.191 27.4056C129.112 27.4056 128.312 27.7556 127.713 28.4556C127.073 29.1944 126.753 30.1667 126.753 31.45ZM146.101 27.6778H141.744V37.4H138.786V27.6778H136.707V25.3444H138.786V23.6722C138.786 22.4278 139.226 21.3778 140.065 20.5611C140.904 19.7444 141.984 19.3556 143.303 19.3556C143.663 19.3556 143.983 19.3944 144.262 19.3944C144.542 19.3944 144.782 19.4722 144.982 19.55V22C144.902 21.9611 144.702 21.8833 144.462 21.8056C144.222 21.7278 143.943 21.6889 143.623 21.6889C143.023 21.6889 142.543 21.8833 142.224 22.2333C141.904 22.5833 141.744 23.1667 141.744 23.8667V25.3056H146.101V22.5833L149.019 21.7278V25.3056H151.978V27.6389H149.019V33.2778C149.019 34.0167 149.179 34.5222 149.419 34.8333C149.699 35.1444 150.139 35.3 150.738 35.3C150.898 35.3 151.098 35.2611 151.338 35.1833C151.578 35.1056 151.778 35.0278 151.938 34.9111V37.2444C151.738 37.3611 151.458 37.4389 151.018 37.5167C150.578 37.5944 150.179 37.6333 149.739 37.6333C148.5 37.6333 147.58 37.3222 146.981 36.7C146.381 36.0778 146.061 35.1056 146.061 33.8222L146.101 27.6778Z" fill="#737373"/>
<path d="M17.0234 15H30.6949V28.3H17.0234V15Z" fill="#F25022"/>
<path d="M32.1328 15H45.8043V28.3H32.1328V15Z" fill="#7FBA00"/>
<path d="M17.0234 29.7002H30.6949V43.0002H17.0234V29.7002Z" fill="#00A4EF"/>
<path d="M32.1328 29.7H45.8043V43H32.1328V29.7Z" fill="#FFB900"/>
</g>
<defs>
<clipPath id="clip0_7_109">
<rect width="135" height="28" fill="white" transform="translate(17 15)"/>
</clipPath>
</defs>
</svg>
