<svg width="170" height="59" viewBox="0 0 170 59" fill="none" xmlns="http://www.w3.org/2000/svg">
<g clip-path="url(#clip0_7_116)">
<mask id="mask0_7_116" style="mask-type:luminance" maskUnits="userSpaceOnUse" x="-6" y="-14" width="153" height="87">
<path d="M-5.15234 -13.2012H146.809V72.2009H-5.15234V-13.2012Z" fill="white"/>
</mask>
<g mask="url(#mask0_7_116)">
<mask id="mask1_7_116" style="mask-type:luminance" maskUnits="userSpaceOnUse" x="26" y="14" width="31" height="31">
<path d="M41.5 45.0001C50.0605 45.0001 57.0001 38.0605 57.0001 29.5C57.0001 20.9396 50.0605 14 41.5 14C32.9396 14 26 20.9396 26 29.5C26 38.0605 32.9396 45.0001 41.5 45.0001Z" fill="white"/>
</mask>
<g mask="url(#mask1_7_116)">
<path d="M25.2383 13.2402H57.7579V45.7599H25.2383V13.2402Z" fill="#E5E5E4"/>
</g>
<mask id="mask2_7_116" style="mask-type:luminance" maskUnits="userSpaceOnUse" x="26" y="14" width="31" height="31">
<path d="M41.5008 44.6959C49.8934 44.6959 56.6969 37.8924 56.6969 29.4998C56.6969 21.1072 49.8934 14.3037 41.5008 14.3037C33.1082 14.3037 26.3047 21.1072 26.3047 29.4998C26.3047 37.8924 33.1082 44.6959 41.5008 44.6959Z" fill="white"/>
</mask>
<g mask="url(#mask2_7_116)">
<path d="M25.543 13.5439H57.4548V45.4558H25.543V13.5439Z" fill="white"/>
</g>
<mask id="mask3_7_116" style="mask-type:luminance" maskUnits="userSpaceOnUse" x="27" y="15" width="29" height="29">
<path d="M41.4999 43.4805C49.2211 43.4805 55.4804 37.2212 55.4804 29.5C55.4804 21.7789 49.2211 15.5196 41.4999 15.5196C33.7788 15.5196 27.5195 21.7789 27.5195 29.5C27.5195 37.2212 33.7788 43.4805 41.4999 43.4805Z" fill="white"/>
</mask>
<g mask="url(#mask3_7_116)">
<path d="M26.7578 14.7599H56.2383V44.2403H26.7578V14.7599Z" fill="#4A8CFF"/>
</g>
<mask id="mask4_7_116" style="mask-type:luminance" maskUnits="userSpaceOnUse" x="32" y="24" width="19" height="11">
<path d="M45.7554 27.6855L49.7064 24.7983C50.0513 24.5171 50.3142 24.5825 50.3142 25.1022V33.9068C50.3142 34.4903 49.986 34.4235 49.7064 34.2107L45.7554 31.3235V27.6855ZM32.3828 25.1235V31.6882C32.3864 32.4009 32.6729 33.083 33.1793 33.5845C33.6857 34.086 34.3705 34.3659 35.0832 34.3627H44.6567C44.7862 34.3631 44.9106 34.3121 45.0026 34.221C45.0946 34.1298 45.1467 34.0059 45.1475 33.8764V27.3117C45.1439 26.599 44.8574 25.9169 44.3511 25.4154C43.8447 24.9139 43.1599 24.634 42.4472 24.6372H32.8736C32.7441 24.6368 32.6197 24.6877 32.5277 24.7789C32.4357 24.87 32.3836 24.994 32.3828 25.1235Z" fill="white"/>
</mask>
<g mask="url(#mask4_7_116)">
<path d="M31.6211 23.8774H51.0721V35.1226H31.6211V23.8774Z" fill="white"/>
</g>
</g>
</g>
<path fill-rule="evenodd" clip-rule="evenodd" d="M129.326 25.9469C129.628 26.4685 129.727 27.0611 129.759 27.7277L129.802 28.615V34.8277L129.846 35.7181C129.932 37.1701 131.003 38.2442 132.467 38.3352L133.353 38.3784V28.6165L133.396 27.7292C133.433 27.0719 133.531 26.467 133.838 25.9408C134.822 24.2464 136.993 23.6708 138.689 24.6522C139.226 24.9639 139.672 25.4115 139.984 25.9516C140.285 26.4731 140.381 27.0765 140.418 27.7292L140.461 28.615V34.8292L140.504 35.7196C140.595 37.1779 141.658 38.2519 143.127 38.3368L144.01 38.38V27.7308C144.01 23.8081 140.833 20.6293 136.91 20.6293C134.872 20.6277 132.929 21.5042 131.583 23.0335C130.236 21.5027 128.295 20.6262 126.256 20.6262C124.783 20.6262 123.414 21.0737 122.28 21.8468C121.587 21.0737 120.042 20.6262 119.152 20.6262V38.38L120.039 38.3368C121.523 38.2395 122.599 37.1933 122.656 35.7196L122.704 34.8292V28.6165L122.747 27.7292C122.784 27.058 122.877 26.47 123.181 25.9454C123.817 24.8498 124.988 24.1769 126.255 24.1769C127.519 24.1754 128.691 24.8513 129.326 25.9469ZM68.5477 38.3352L69.435 38.3784H82.7491L82.7059 37.4927C82.584 36.0344 81.5517 34.9665 80.0888 34.8709L79.2015 34.8277H71.2127L81.8618 24.1739L81.8186 23.2881C81.7492 21.8144 80.6736 20.7496 79.2015 20.6663L78.3142 20.6247L65 20.62L65.0432 21.5073C65.1605 22.9532 66.2083 24.0427 67.6604 24.1245L68.5508 24.1692H76.538L65.8873 34.8261L65.9305 35.7134C66.0169 37.1809 67.074 38.2411 68.5477 38.3352ZM115.663 23.2233C119.129 26.6892 119.13 32.3108 115.663 35.7751C112.192 39.241 106.574 39.241 103.103 35.7751C99.6372 32.3093 99.6372 26.6861 103.103 23.2202C104.768 21.5552 107.023 20.62 109.376 20.62C111.737 20.6216 113.998 21.5567 115.663 23.2233ZM113.152 25.7371C115.231 27.8172 115.231 31.1889 113.152 33.2706C111.072 35.3492 107.699 35.3492 105.618 33.2706C103.54 31.1905 103.54 27.8172 105.618 25.7371C107.699 23.6585 111.072 23.6585 113.152 25.7371ZM90.7487 20.6247C93.102 20.6247 95.3596 21.5613 97.0216 23.2248C100.489 26.6907 100.489 32.3139 97.0216 35.7767C93.5511 39.2426 87.9325 39.2426 84.462 35.7767C80.9961 32.3108 80.9961 26.6876 84.462 23.2217C86.127 21.5567 88.3816 20.6216 90.7348 20.6216H90.7472V20.6247H90.7487ZM94.5078 25.734C96.588 27.8141 96.588 31.1874 94.5078 33.2691C92.4277 35.3477 89.0544 35.3477 86.9742 33.2691C84.8956 31.189 84.8956 27.8157 86.9742 25.7355C89.0575 23.6569 92.4277 23.6569 94.5078 25.734Z" fill="#2D8CFF"/>
<defs>
<clipPath id="clip0_7_116">
<rect width="31" height="31" fill="white" transform="translate(26 14)"/>
</clipPath>
</defs>
</svg>
